<?xml version="1.0" encoding="UTF-8"?>
<svg id="Calque_2" data-name="Calque 2" xmlns="http://www.w3.org/2000/svg" viewBox="0 0 326.73 231.46">
  <defs>
    <style>
      .cls-1 {
        letter-spacing: -.04em;
      }

      .cls-2, .cls-3 {
        fill: #fff;
      }

      .cls-4 {
        letter-spacing: 0em;
      }

      .cls-3 {
        font-family: SharpSansDisplayNo1-Book, 'Sharp Sans Display No1';
        font-size: 37.77px;
      }

      .cls-5 {
        letter-spacing: -.02em;
      }

      .cls-6 {
        letter-spacing: 0em;
      }

      .cls-7 {
        letter-spacing: -.01em;
      }

      .cls-8 {
        letter-spacing: -.02em;
      }
    </style>
  </defs>
  <g id="Calque_1-2" data-name="Calque 1">
    <rect class="cls-2" x="48.41" y="71.72" width="27.44" height="97" rx="13.72" ry="13.72"/>
    <rect class="cls-2" x="88.41" y="28.61" width="27.44" height="140.11" rx="13.72" ry="13.72"/>
    <rect class="cls-2" x="45.15" y="28.61" width="33.95" height="33.95" rx="16.98" ry="16.98"/>
    <path class="cls-2" d="M145.55,168.72h0c-8.74,0-15.21-8.19-13.12-16.67,2.97-12.06,8.49-24.43,13.88-36.51,15.43-34.59,18.28-47.3,4.77-54.37-11.71-6.13-22.12,1.08-34.16,13.79-1.86,1.96-3.2,3.38-4.74,4.55l-16.35-21.49c-.12.09-.27.21-.43.35.31-.28,1.2-1.22,1.92-1.98,8.43-8.9,34.09-36,66.28-19.14,11.96,6.26,25.63,18.95,22.78,43.83-1.67,14.63-8.66,30.3-15.42,45.45-4.9,10.98-9.91,22.23-12.31,31.9-1.5,6.04-6.88,10.29-13.1,10.29Z"/>
    <path class="cls-2" d="M187.59,168.66c-8.42-.04-14.87-7.7-13.27-15.97,2.4-12.38,7.43-23.33,12.34-34.02,3.12-6.79,6.34-13.8,8.8-21.06,9.36-27.64-.88-49.32-13.59-60.38-9.41-8.2-23.41-15.4-38.6-13.61-6.26.74-11.72-4.27-11.72-10.58h0c0-4.5,2.82-8.57,7.08-10.03,20.17-6.89,42.91-1.88,60.97,13.85,19.3,16.81,35.06,49.12,21.43,89.4-2.91,8.59-6.43,16.26-9.84,23.68-4.42,9.63-8.42,18.59-10.25,27.75-1.28,6.38-6.85,10.99-13.36,10.96h0Z"/>
    <path class="cls-2" d="M221.31,88.56c-2.48,0-4.46-.14-5.79-.28l2.73-26.86c2.69.27,16.67,1.13,27.38-8.9,7.04-6.59,9.51-14.98,10.21-21.79.71-6.98,6.5-12.33,13.52-12.33h0c7.68,0,13.91,6.36,13.57,14.03-.47,10.79-4.21,26.1-18.85,39.81-15.02,14.06-32.85,16.33-42.78,16.33Z"/>
    <path class="cls-2" d="M245.63,168.63c-7.76-.05-13.86-6.62-13.39-14.37.37-6.09.93-11.87,1.46-17.25,2.95-30.11,4.17-42.58-24.43-51l7.62-25.9c22.27,6.56,35.93,17.64,41.78,33.88,5,13.91,3.49,29.32,1.9,45.65-.51,5.23-1.03,10.72-1.37,16.31-.43,7.16-6.4,12.72-13.57,12.67h0Z"/>
    <text class="cls-3" transform="translate(0 220.85)"><tspan x="0" y="0">Enc</tspan><tspan class="cls-1" x="67.11" y="0">r</tspan><tspan class="cls-8" x="80.07" y="0">e</tspan><tspan x="102.54" y="0">z </tspan><tspan class="cls-5" x="130.49" y="0">v</tspan><tspan class="cls-4" x="149.22" y="0">os p</tspan><tspan class="cls-1" x="221.92" y="0">r</tspan><tspan x="234.88" y="0">oj</tspan><tspan class="cls-7" x="265.77" y="0">e</tspan><tspan class="cls-6" x="288.43" y="0">t</tspan><tspan x="301.88" y="0">s.</tspan></text>
  </g>
</svg>