<?xml version="1.0" encoding="UTF-8"?>
<svg id="Calque_1" xmlns="http://www.w3.org/2000/svg" version="1.1" viewBox="0 0 200 67.6">
  <!-- Generator: Adobe Illustrator 29.8.2, SVG Export Plug-In . SVG Version: 2.1.1 Build 3)  -->
  <defs>
    <style>
      .st0 {
        fill: #fff;
      }
    </style>
  </defs>
  <path class="st0" d="M163.6,39.2c-.4-.3-.9-.5-1.5-.5s-.4,0-.6,0c-1.1.2-2.6,1.3-2.4,3,0,.7.4,1.2.9,1.6.6.5,1.4.7,2.2.6h0c1.3-.2,2.5-1.3,2.3-3,0-.8-.4-1.4-.9-1.7Z"/>
  <path class="st0" d="M128.8,42.1h0c-.7,0-1.1.2-1.6.3,0,2.2.3,4.4.4,6.5v.2c3.6-.6,5.3-2.2,5-4.6-.3-1.9-1.5-2.7-3.8-2.4Z"/>
  <path class="st0" d="M194.2,46.5l-3.4-23.1c-.2-1.3-1.5-2.3-2.9-2l-1.9.3-67.3,10.4v-.4c0-3.5.3-5.8,1-7,.6-1.2,1.4-1.8,2.4-1.8s3.5,1.1,4.2,1.5l1.9-5.3c-.9-.4-4.1-1.6-4.9-1.6-1.1,0-2.1.3-3.1,1-.9.6-1.7,1.6-2.2,2.8v-3.1h-5.4v18.8l-1.3,1.5c-.5-2-1.2-3.4-1.2-3.5.5-1.4.8-2.9.8-4.4s0-.3,0-.4c0-2.2-.6-4.2-1.7-6.1-.7-1.3-1.7-2.4-2.8-3.3h0c-.6-.5-1.3-1-2-1.4-2-1.2-4.2-1.8-6.6-1.8s-6.1,1.1-8.6,3.4c-2.8,2.6-4.2,5.8-4.2,9.7s1.3,6.7,3.8,9.2c.8.8,1.6,1.4,2.5,2,.4.3.9.5,1.4.7.2,0,.4.2.5.2,0,2,.4,4.4,1.1,7,0,.2.1.5.2.7.1.4.2.8.3,1.1-.1.1-.2.3-.2.5,0,.5.3.9.8,1,0,0,0,0,0,0,0,0,0,0,0,0,.3,1,.2,3-3.6,3.9-.5.1-.7.6-.6,1.1,0,0,0,.2,0,.2.8-.1,4.4-.6,5.2-3.1.1.4.3.9.5,1.4,1.4,3.8.7,4.8.7,4.8,0,.4,0,.8.5,1,0,0,0,0,.1,0,.4,0,2.5-1.4.2-6.6-.4-.9-.7-1.5-.9-2.1.2,0,.4,0,.6,0,.3,0,.5-.3.6-.6,2.4-1,6.2-2.4,6.5-2.5.2.2.4.4.7.6l.4.3,13,8.1c.6.5,1.3.7,2.1.6l70.5-10.9c1.4-.2,2.4-1.5,2.2-2.8ZM107.9,48.1s0,0,0,0c-.2-1.5.8-2.8,2.2-3.3-.6,2.4-2,3.1-2.2,3.3ZM108.4,49.2c0,0,.1.2.2.2,0,0-.1-.2-.2-.2,0,0,0,0,0,0ZM108.3,49.2s0,0,0,0c0,0,0,0,0,0ZM96.5,36.9c1.3-1.5,4-1.9,6.7-2,0,0,.6-.9.6-1.2,0,0,0,0,0,0-.3.7-.7,1.4-1.3,2-.9,1-2,1.6-3.3,1.9h0c-.5.1-1,.2-1.6.2s-1.2,0-1.7-.2c.2-.2.3-.5.5-.7ZM95.9,36c.3-.3.6-.5.9-.8-.4.2-.7.5-.9.8ZM93,35.8c-1.3-1.3-1.9-3.1-1.9-5.3s.6-3.8,1.9-5.2c1.3-1.4,2.9-2,4.8-2s3.6.7,4.8,2c.7.7,1.2,1.6,1.5,2.6,0,0,0,0,0,0,0,0,0,.2,0,.3,0,0,0,0,0,0,0,.3.1.6.2.9,0,0,0,.1,0,.2,0,0,0,.1,0,.2,0,0,0,.2,0,.3,0,0,0,.1,0,.2,0,.1,0,.3,0,.5,0,1.2-.2,2.2-.6,3.1v-.4c-3.2,0-6.9.5-8.7,2.5-.3.4-.6.7-.9,1.2-.5-.3-1-.7-1.4-1.1ZM104.8,50.2h0s0,0,0,0h0ZM104.8,45.9c-.8,1.1-1,2.3-.5,3.4l-6.6,2.5c-.4-.2-.9-.3-1.2-.4-.1-.4-.3-1-.4-1.5,0-.2-.1-.4-.2-.7-.6-2.3-1-4.3-1.1-6,.9.2,1.9.3,3,.3,2.4,0,4.6-.6,6.6-1.7,2-1.1,3.6-2.7,4.7-4.8.1-.2.2-.5.4-.7,0,0,0,0,0,0,.4,1.2.6,2.3.8,3.3l-5.4,6.2ZM111.3,50.4c-1.1.2-2.1-.2-2.7-.9.7-.4,2.2-1.6,2.9-4.5,0,0,0-.2,0-.3,1.2.2,2.2,1.1,2.4,2.4.2,1.6-.9,3.1-2.6,3.3ZM133.8,47.1c-1.7,2.3-5.2,3.5-6.9,3.7-.3,0-.5,0-.7,0-1.1,0-1.7-.4-1.8-1.2,0-.2,0-.3.1-.5,0-.1.2-.2.4-.2.1,0,.3,0,.5,0,.2,0,.4,0,.6.1-.2-1.9-.4-3.8-.7-6.3-.3.2-.7.4-.9.5-.3.2-.4.2-.5.2-.3,0-.5-.1-.7-.2-.1-.1-.4-.3-.4-.6,0-.4.4-.7,1.1-1,.3-.1.7-.3,1.1-.4,0-.1,0-.3.1-.4.2-.2.4-.2.5-.2.1,0,.8,0,1.2.3.4,0,.8-.1,1.2-.2h0c2.9-.4,6.4.2,6.8,3,.2,1.2-.2,2.3-1,3.3ZM135.2,36.8c0-.2,0-.4.4-.5.4,0,1.2.2,1.4.4h0c0,0,.1.1.3,1.7,0,.5.1,1-.3,1,0,0-.1,0-.2,0-.4,0-1.2-.2-1.2-.7,0-.2,0-.4,0-.5,0-.5-.2-.9-.2-1.4ZM137.9,49.3s0,0-.1,0c-.3,0-.7,0-1-.3-.2-.1-.3-.3-.3-.5l-.5-4.4c-.2-1.7-.4-2.2-.5-2.4,0,0,0-.2,0-.3,0-.3.1-.4.4-.5.2,0,1.2,0,1.7.4.2.2.3.3.3.5,0,.5,0,1.4.1,2.3,0,1,.1,2.2.2,3,0,.3,0,.6.1.9,0,.2,0,.5,0,.7,0,.3-.1.5-.4.6ZM142.5,48.6c-.5,0-.9.1-1.3.1-.6,0-1-.1-1.3-.3-.3-.2-.5-.6-.5-1,0-.2,0-.8.3-.8,0,0,.2,0,.4,0,.6.2,2,.7,3.4.5.8-.1,1.5-.4,1.4-1.7,0-.7-1-.6-2.4-.5h-.2c-1.3.1-3.1.3-3.3-1.3-.3-2.5,3.4-3.6,4.8-3.8.9-.1,1.6,0,2,.3.2.2.4.5.4.8,0,0,0,.9-.4,1-.1,0-.2,0-.4-.1-.4-.2-1.2-.6-2.8-.4-.6,0-1.8.4-1.7,1.4,0,.5,1.2.5,2.2.4h.3c1.2,0,3.2-.1,3.4,1.5.3,2.6-2.7,3.8-4.3,4ZM151.6,47.2c-.4,0-.7,0-1.1,0-.8,0-1.4-.2-1.8-.5-.4-.3-.7-.9-.8-1.5-.3-3,3.1-6,5.5-6.4.4,0,1.2-.1,1.8.3.2.2.4.5.4.8,0,.6-.2.7-.4.8,0,0-.1,0-.3,0-.4,0-1.3-.3-2.4,0-1.5.2-2.9,1.7-2.7,3.6,0,.5.3.9.6,1.2.6.5,1.6.4,2.4.3,1.4-.2,2.4-1,3-1.5.3-.2.5-.4.6-.4.1,0,.2,0,.3,0,0,0,.2.2.2.3.1,1-2.8,2.6-5.4,3ZM161.2,45.5h0c-.3,0-.7,0-1,0-.8,0-1.4-.2-1.9-.5-.6-.4-.9-1.1-1-2.1-.3-2.8,2.3-5.2,4.9-5.6.9-.1,2.1-.2,3,.5.6.4.9,1.1,1,1.9.2,1.6-.9,5-5.1,5.6ZM175.9,42.9c-.2.2-.4.3-.5.4-.3.2-.4.4-.6.4-.4,0-.7-.1-1.8-4-.7,1.9-2.3,4.1-3.9,4.3,0,0-.2,0-.3,0-.3,0-.6,0-.8-.3-.4-.3-.7-.9-.8-1.9,0-.2,0-.6,0-1.2,0-1,0-2.5-.1-3.6,0-.4.2-.6.4-.6.3,0,1.1.2,1.4.5.1,0,.2.2.2.3,0,0,0,.3,0,.7-.1.8-.3,2.2-.2,3.2,0,.5.2.9.4,1.1,0,0,.2,0,.3,0,1.3-.2,2.7-2.7,3-4.6.1-1,.3-1.3,1.3-1.5h.4c0-.1,0,.3,0,.3,0,.2,0,.3,0,.5.1,1.1,1,4.4,1.5,4.8.1,0,.3,0,.4.1.1,0,.2.2.2.3,0,.3-.2.4-.5.7ZM184.2,42c-.5,0-.7-.5-.9-1.1l-1-3c-.5-1.6-.8-2-1.1-1.9-.7.1-2.2,2.6-2.7,5.7,0,.2,0,.6-.4.6,0,0,0,0-.2,0-.2,0-.6,0-.8-.2-.2-.1-.3-.3-.3-.5,0-.2,0-.3,0-.6,0-.6,0-1.7-.2-3.6-.1-1.2-.3-1.8-.4-2.1,0-.1,0-.2,0-.3,0-.3.1-.5.4-.5.2,0,1.1.1,1.5.4.1.1.2.2.2.4,0,.4,0,1.8,0,2.8v.6c.8-2,2.1-4.2,3.7-4.5,1.2-.2,1.5.9,1.9,1.9l1.1,3.6c.1.4.2.5.3.6.1,0,.2,0,.3,0,0,0,.1.1.2.3,0,.6-1.1,1.4-1.5,1.4ZM188.3,35c0,.5,0,1.6.2,2.8.1,1,.2,1.7.3,2.1,0,.3,0,.5,0,.7,0,.3,0,.6-.5.7,0,0-.2,0-.3,0-.3,0-.6,0-.8-.2-.2-.1-.2-.3-.2-.4,0-.2,0-.5,0-1,0-.9,0-2.2-.2-3.4v-1c-.1,0-1.3.2-1.3.2-.1,0-.3,0-.5-.1-.3-.2-.5-.7-.5-.9,0-.2.1-.5.4-.5.1,0,.3,0,.5,0,.3,0,.7,0,1.2,0-.2-1.7-.4-2.8-.5-3.5,0-.3,0-.5,0-.6,0-.5.2-.7.4-.8.2,0,.9,0,1.3.4.3.2.3.4.3.6,0,0,0,.2,0,.3,0,.4,0,1.2,0,3.4,1.3-.2,1.9-.4,2-.4,0,0,0,0,.1,0,.1,0,.3,0,.4,0,.2.1.2.3.2.4,0,.6-.7.9-2.6,1.3Z"/>
  <polygon class="st0" points="53.7 4.8 46.4 4.8 41 13.7 45.4 13.7 53.7 4.8"/>
  <path class="st0" d="M23.1,11.3c-2.4-1.2-6-1.8-10.8-1.8h-7.5v33.4h7.6c4.3,0,7.4-.3,9.1-.8,1.8-.5,3.4-1.5,4.9-2.9,1.5-1.4,2.7-3.2,3.5-5.4.9-2.2,1.3-4.5,1.3-7.1s-.8-6.8-2.3-9.5c-1.5-2.7-3.5-4.7-5.8-5.9ZM23.6,32.3c-.8,1.6-1.9,2.7-3.2,3.4-1.3.7-3.4,1-6.3,1h-3V15.7h2.2c4,0,6.8.9,8.6,2.6,2,2,3,4.7,3,8.2s-.4,4.2-1.2,5.8Z"/>
  <path class="st0" d="M73.8,37.8c-2.2,0-4.1-.7-5.4-2-1.4-1.3-2.1-3.1-2.1-5.2s.7-3.9,2.1-5.3c1.4-1.4,3.3-2.1,5.6-2.1s2.4.2,3.3.6c.9.4,1.9,1.1,2.9,2.1l5.2-2.8c-1.2-1.8-2.8-3.2-4.8-4.2-2-1-4.2-1.5-6.6-1.5s-5,.6-7.2,1.7c-2.1,1.2-3.8,2.7-5,4.8-1.2,2-1.8,4.2-1.8,6.6,0,3.5,1.2,6.5,3.7,9.1,2.5,2.6,5.9,3.9,10.2,3.9s8.6-1.7,11.2-5.2l-4.9-3.3c-1.5,1.9-3.7,2.8-6.5,2.8Z"/>
  <path class="st0" d="M45.3,17.5c-3.7,0-6.7,1.3-9.1,3.7-2.4,2.5-3.6,5.6-3.6,9.4s1.2,6.8,3.6,9.2c2.4,2.4,5.6,3.7,9.4,3.7s4.6-.4,6.5-1.3c1.8-.9,3.4-2.3,4.7-4.1l-5.2-2.5c-1.7,1.6-3.6,2.5-6,2.5s-3.5-.5-4.8-1.6c-1.2-1.1-2-2.5-2.3-4.2h19.9v-1.2c0-4.1-1.2-7.4-3.6-9.9-2.4-2.5-5.6-3.7-9.5-3.7ZM38.8,27.4c.7-1.5,1.5-2.6,2.3-3.2,1.3-1,2.8-1.5,4.5-1.5s3,.4,4.2,1.3c1.2.9,2,2,2.4,3.4h-13.4Z"/>
</svg>