<?xml version="1.0" encoding="UTF-8"?>
<svg id="Calque_1" xmlns="http://www.w3.org/2000/svg" version="1.1" viewBox="0 0 91.6 80">
  <!-- Generator: Adobe Illustrator 29.8.2, SVG Export Plug-In . SVG Version: 2.1.1 Build 3)  -->
  <defs>
    <style>
      .st0 {
        fill: #fff;
      }
    </style>
  </defs>
  <g>
    <path class="st0" d="M11.4,57.5l6.6,8.4h-2.8s-5.3-7-5.3-7l-2.9,2.6v4.4s-2.3,0-2.3,0v-19.5c0,0,2.4,0,2.4,0v12.5s7.4-6.9,7.4-6.9h3.2s-6.2,5.5-6.2,5.5Z"/>
    <path class="st0" d="M26.1,64.3c2.1,0,3.5-.8,4.4-2.3h2.5c-.5,1.3-1.4,2.3-2.5,3.1-1.2.8-2.6,1.2-4.5,1.2-2.3,0-4.2-.7-5.6-2.1-1.4-1.4-2.1-3.1-2.1-5.1,0-2.1.7-3.7,2-5.1,1.4-1.4,3.3-2.1,5.6-2.1,2.3,0,4.1.7,5.6,2.1,1.3,1.3,2,3,2,5.1v.8s-12.8,0-12.8,0c.2,1.3.7,2.3,1.7,3.2,1,.9,2.2,1.3,3.7,1.3ZM25.9,53.8c-1.4,0-2.6.4-3.6,1.2-.9.8-1.5,1.7-1.7,3h10.4c-.2-1.2-.7-2.2-1.6-2.9-1-.8-2.1-1.2-3.5-1.2Z"/>
    <path class="st0" d="M44.4,52v2.1s-.3,0-.3,0c-1.7,0-3,.6-4,1.8-1,1.1-1.5,2.5-1.5,4.1v6.1s-2.3,0-2.3,0v-13.9c0,0,2.3,0,2.3,0v3.4c.5-1.4,1.5-2.5,3.2-3.2.7-.3,1.5-.4,2.5-.4h.2Z"/>
    <path class="st0" d="M49.2,54.3c1-1.6,2.6-2.3,4.7-2.3,1,0,2,.3,2.8.7.9.5,1.5,1.2,2,2.1.7-1.2,1.8-2,3.3-2.5.6-.2,1.3-.3,2-.3.7,0,1.5.1,2.1.4.7.3,1.3.7,1.8,1.2,1.1,1.1,1.7,2.5,1.7,4.2v8.4s-2.3,0-2.3,0v-8.3c0-1.1-.3-2.1-1-2.8-.7-.7-1.6-1.1-2.7-1.1-1.2,0-2.1.3-2.9,1-.8.7-1.2,1.7-1.2,2.9v8.3s-2.3,0-2.3,0v-8.3c0-1.1-.3-2.1-1-2.8-.7-.7-1.6-1.1-2.7-1.1-1.2,0-2.1.3-2.9,1-.8.7-1.2,1.7-1.2,2.9v8.3s-2.3,0-2.3,0v-13.9s2.3,0,2.3,0v2.1Z"/>
    <path class="st0" d="M85.4,64c-1.2,1.6-3.1,2.4-5.5,2.4-2.2,0-4-.7-5.4-2.1-1.3-1.4-2-3.1-2-5.1,0-2,.7-3.7,2-5.1,1.4-1.4,3.2-2.1,5.5-2.1,2.3,0,4.1.8,5.3,2.5v-2.3s2.3,0,2.3,0v13.9c0,0-2.3,0-2.3,0v-2.2ZM80.2,64.5c1.7,0,3-.5,3.9-1.5.9-1,1.4-2.2,1.4-3.7,0-1.5-.4-2.7-1.4-3.7-1-1-2.3-1.6-3.9-1.6-1.6,0-3,.5-4,1.5-1,1-1.4,2.2-1.5,3.7,0,1.5.5,2.7,1.4,3.7,1,1,2.3,1.6,4,1.6Z"/>
    <path class="st0" d="M17.4,76.7c.4,0,.7,0,1-.3.3-.2.5-.5.7-.8h.7c-.2.5-.5.9-.9,1.2-.5.3-1,.5-1.6.5-.8,0-1.5-.3-2-.8-.5-.5-.7-1.2-.7-2,0-.8.2-1.5.7-2,.5-.5,1.2-.8,2-.8.6,0,1.1.2,1.6.5.4.3.7.7.9,1.2h-.7c-.1-.3-.4-.6-.7-.8-.3-.2-.6-.3-1-.3-.4,0-.7,0-1,.2-.3.1-.5.3-.7.5-.4.4-.5.9-.5,1.6,0,.6.2,1.2.5,1.6.4.4.9.6,1.6.6Z"/>
    <path class="st0" d="M27.2,71.7c.8,0,1.5.3,2,.8.5.5.8,1.2.8,2,0,.8-.3,1.5-.8,2-.5.5-1.2.8-2,.8-.8,0-1.5-.3-2-.8-.5-.5-.8-1.2-.8-2,0-.8.3-1.5.8-2,.5-.5,1.2-.8,2-.8ZM27.2,76.7c.7,0,1.2-.2,1.6-.6.4-.4.6-.9.6-1.6,0-.6-.2-1.2-.6-1.6-.4-.4-.9-.6-1.6-.6-.7,0-1.2.2-1.6.6-.4.4-.6.9-.6,1.6,0,.6.2,1.2.6,1.6.4.4.9.6,1.6.6Z"/>
    <path class="st0" d="M39.9,71.8v5.5s-.7,0-.7,0l-3.4-4.7v4.6s-.6,0-.6,0v-5.5s.7,0,.7,0l3.4,4.6v-4.6s.6,0,.6,0Z"/>
    <path class="st0" d="M47.9,76.8c.4,0,.7,0,1-.3.3-.2.5-.5.7-.8h.7c-.2.5-.5.9-.9,1.2-.4.3-1,.5-1.6.5-.8,0-1.5-.3-2-.8-.5-.5-.7-1.2-.7-2,0-.8.2-1.5.7-2,.5-.5,1.2-.8,2-.8.6,0,1.1.2,1.6.5.4.3.7.7.9,1.2h-.7c-.1-.3-.4-.6-.7-.8-.3-.2-.6-.3-1-.3-.4,0-.7,0-1,.2-.3.1-.5.3-.7.5-.4.4-.5.9-.5,1.6,0,.6.2,1.2.5,1.6.4.4.9.6,1.6.6Z"/>
    <path class="st0" d="M56,72.4v1.8s3.1,0,3.1,0v.6h-3.1s0,1.8,0,1.8h3.4v.6h-4.1s0-5.5,0-5.5h4.1s0,.6,0,.6h-3.4Z"/>
    <path class="st0" d="M65.1,77.4h-.6s0-5.5,0-5.5h2.5c.6,0,1,.2,1.4.5.3.3.5.8.5,1.3,0,.5-.2,1-.5,1.3-.3.3-.8.5-1.4.5h-1.9s0,2,0,2ZM65.2,72.5v2.4s1.8,0,1.8,0c.4,0,.8-.1,1-.3.2-.2.3-.5.3-.9s-.1-.7-.3-.9c-.2-.2-.5-.3-1-.3h-1.8Z"/>
    <path class="st0" d="M77.8,72.5h-1.9s0,4.9,0,4.9h-.6s0-4.9,0-4.9h-1.9s0-.6,0-.6h4.5v.6Z"/>
  </g>
  <g>
    <path class="st0" d="M54.2,33.2c.4-.2.8-.4,1.2-.7.2,0,.3-.2.5-.3-.1-.1-.2-.3-.2-.4,0-.3.3-.6.6-.6.3,0,.5.2.6.4.5-.3,1-.8,1.5-1.2,0,0,0-.1,0-.2,0-.3.3-.6.6-.6,0,0,0,0,0,0,0-.1.2-.2.3-.4,0,0,.1-.2.2-.3,0,0,0-.2,0-.3s0-.3.2-.4h0c0,0,.2-.1.3-.2,0,0,0,0,0,0,0,0,0,0,.1,0,0,0,0,0,0,0,0,0,0,0,0,0,0-.1.1-.2.2-.3.2-.5.4-1,.5-1.5,0,0,0,0,0-.1,0,0-.1,0-.2,0-.3,0-.6-.3-.6-.6,0-.3.3-.6.6-.6.2,0,.3,0,.4.2,0-.2,0-.3,0-.5,0-.1,0-.2,0-.3,0,0-.1-.2-.1-.3s0-.3.2-.4c0-.2,0-.4,0-.5,0,0,0,0-.2,0-.3,0-.6-.3-.6-.6,0-.3.3-.6.6-.6s.1,0,.2,0c0-.3,0-.6,0-.9,0-.4,0-.8,0-1.1-.2,0-.3-.3-.3-.5s.1-.4.3-.5c0-.2,0-.3,0-.5,0,0-.1,0-.2,0-.3,0-.6-.3-.6-.6s.3-.6.6-.6.1,0,.2,0c0-.2,0-.3,0-.5,0-.5,0-1.1,0-1.6-.2-.1-.3-.3-.3-.5,0-.3.2-.5.4-.6,0-.2,0-.4,0-.6-.1,0-.2.2-.4.2-.3,0-.6-.3-.6-.6,0-.3.3-.6.6-.6.2,0,.4.1.5.3,0-.2,0-.3,0-.5,0-.1,0-.2,0-.3-.1-.1-.2-.3-.2-.5,0-.3.2-.6.5-.6,0-.2.2-.5.3-.7.1-.3.3-.6.5-.9,0-.1.1-.3.2-.4-.1,0-.2.1-.4.1s-.2,0-.2,0c-.2.1-.4.2-.5.3,0,0-.1,0-.2.1.3,0,.5.3.5.6,0,.3-.3.6-.6.6-.3,0-.6-.3-.6-.6s0,0,0,0c-.5.4-1.1.8-1.5,1.3,0,0,.1.2.1.4,0,.3-.3.6-.6.6-.1,0-.3,0-.4-.1-.2.2-.3.3-.5.5.2,0,.4.3.4.6s-.3.6-.6.6c-.2,0-.4-.1-.5-.3-.1.2-.3.4-.4.6.3,0,.5.3.4.6,0,.3-.3.6-.6.6-.1,0-.2,0-.3,0-.2.7-.4,1.4-.5,2.1,0,0,.2,0,.3,0,.3,0,.6.3.6.6,0,.3-.3.6-.6.6s-.3,0-.4-.1c0,.7,0,1.4-.1,2.1.3,0,.6.3.5.6,0,.3-.2.6-.6.6,0,0,0,0,0,0,0,.2,0,.4,0,.5.1-.1.3-.2.5-.2.3,0,.6.3.6.6,0,.3-.3.6-.6.6-.2,0-.4,0-.5-.2,0,.4,0,.7,0,1,0,0,0,0,0,.2s0,0,0,.1c0,.2,0,.5,0,.7,0,0,0,0,0,.1.3,0,.5.3.5.6s-.2.6-.5.6c0,.2,0,.3,0,.5h0s0,0,0,0h0c.1-.1.3-.2.5-.2.3,0,.6.3.6.6s-.3.6-.6.6c-.2,0-.4-.1-.5-.3,0,.1,0,.2,0,.4,0,0,0,0,0,0,0,.1,0,.3,0,.5,0,.1.2.2.2.4,0,.2-.1.4-.4.5h0c0,.2-.1.4-.2.6,0,0,0,0,0,0,.1-.1.3-.2.4-.2.3,0,.6.3.6.6,0,.3-.3.6-.6.6-.3,0-.6-.3-.6-.6,0,0,0,0,0,0,0,.2-.2.4-.3.7h0c0,0,0,.2-.1.3.3,0,.5.3.5.6,0,.3-.3.6-.6.6-.2,0-.3,0-.5-.2h0c-.1.2-.3.4-.4.6.2,0,.3.2.4.4ZM57.3,30.8c-.3,0-.6-.3-.6-.6,0-.3.3-.6.6-.6.3,0,.6.3.6.6s-.3.6-.6.6ZM58.8,22.4c0-.3.3-.6.6-.6.3,0,.6.3.6.6,0,.3-.3.6-.6.6-.3,0-.6-.3-.6-.6ZM59.5,25.6c0,.3-.3.6-.6.6-.3,0-.6-.3-.6-.6,0-.3.3-.6.6-.6.3,0,.6.3.6.6ZM58.9,21.5c-.3,0-.6-.3-.6-.6s.3-.6.6-.6c.3,0,.6.3.6.6,0,.3-.3.6-.6.6ZM58.8,17.8c0-.3.3-.6.6-.6.3,0,.6.3.6.6s-.3.6-.6.6c-.3,0-.6-.3-.6-.6ZM58.9,16.8c-.3,0-.6-.3-.6-.6,0-.3.3-.6.6-.6.3,0,.6.3.6.6,0,.3-.3.6-.6.6ZM58.5,17.8c0,.3-.3.6-.6.6-.3,0-.6-.3-.6-.6,0-.3.3-.6.6-.6.3,0,.6.3.6.6ZM58.4,18.7c.3,0,.6.3.6.6,0,.3-.3.6-.6.6-.3,0-.6-.3-.6-.6,0-.3.3-.6.6-.6ZM58.4,22.4c0,.3-.3.6-.6.6-.3,0-.6-.3-.6-.6,0-.3.3-.6.6-.6.3,0,.6.3.6.6ZM58.4,23.4c.3,0,.6.3.6.6,0,.3-.3.6-.6.6-.3,0-.6-.3-.6-.6,0-.3.3-.6.6-.6ZM58.4,27.1c0,.3-.3.6-.6.6-.3,0-.6-.3-.6-.6,0-.3.3-.6.6-.6.3,0,.6.3.6.6ZM58.3,29.3c-.3,0-.6-.3-.6-.6,0-.3.2-.5.4-.6h0s0,0,.2,0,0,0,.1,0c0,0,0,0,0,0,0,0,0,0,.1,0h0c.2.1.3.3.3.5,0,.3-.3.6-.6.6ZM60,27.1c0,.3-.3.6-.6.6-.3,0-.6-.3-.6-.6,0-.3.3-.6.6-.6s.6.3.6.6ZM60.5,24c0,.3-.3.6-.6.6-.3,0-.6-.3-.6-.6,0-.3.3-.6.6-.6.3,0,.6.3.6.6ZM61,20.9c0,.3-.3.6-.6.6-.3,0-.6-.3-.6-.6,0-.3.3-.6.6-.6s.6.3.6.6ZM60.5,19.3c0,.3-.3.6-.6.6-.3,0-.6-.3-.6-.6,0-.3.3-.6.6-.6.3,0,.6.3.6.6ZM61.1,16.2c0,.3-.3.6-.6.6-.3,0-.6-.3-.6-.6s.3-.6.6-.6c.3,0,.6.3.6.6ZM60.6,14.7c0,.3-.3.6-.6.6-.3,0-.6-.3-.6-.6,0-.3.3-.6.6-.6.3,0,.6.3.6.6ZM60.5,10.9c.3,0,.6.3.6.6,0,.3-.3.6-.6.6-.3,0-.6-.3-.6-.6,0-.3.3-.6.6-.6ZM59.4,12.5c.3,0,.6.3.6.6,0,.3-.3.6-.6.6s-.6-.3-.6-.6c0-.3.3-.6.6-.6ZM58.4,14c.3,0,.6.3.6.6,0,.3-.3.6-.6.6-.3,0-.6-.3-.6-.6s.3-.6.6-.6ZM56.8,16.2c0-.3.3-.6.6-.6.3,0,.6.3.6.6s-.3.6-.6.6c-.3,0-.6-.3-.6-.6ZM56.2,19.3c0-.3.3-.6.6-.6s.6.3.6.6c0,.3-.3.6-.6.6-.3,0-.6-.3-.6-.6ZM56.7,20.9c0-.3.3-.6.6-.6.3,0,.6.3.6.6,0,.3-.3.6-.6.6-.3,0-.6-.3-.6-.6ZM56.2,24c0-.3.3-.6.6-.6.3,0,.6.3.6.6,0,.3-.3.6-.6.6-.3,0-.6-.3-.6-.6ZM56.7,25.6c0-.3.3-.6.6-.6.3,0,.6.3.6.6,0,.3-.3.6-.6.6-.3,0-.6-.3-.6-.6ZM56.2,28.7c0-.3.3-.6.6-.6.3,0,.6.3.6.6,0,.3-.3.6-.6.6-.3,0-.6-.3-.6-.6Z"/>
    <path class="st0" d="M62,28c0-.1,0-.3.1-.4,0,0,0,0,0,0,1-3.1.9-6.1.9-9.1,0-2.7-.1-5.2.8-7.1.6-1.2,1.4-2.9,2.3-3.8l.2-.2h0c0-.2.1-.3.2-.4,0,0,0,0,0,0,0,0,0-.2,0-.3,0,0,0,0,0-.1h0c0,0,0-.1,0-.1,0-.1,0-.2,0-.3h0c0,0,0-.1,0-.1,0,0,0,0,0,0,0,0,0-.2-.2-.2,0,0,0,0,0-.1,0,0-.1-.1-.2-.2,0,0,0,0-.1,0,0,0-.2,0-.2,0h0s0,0,0,0c-.4,0-.8,0-1.2,0h0c-1,0-1.6,0-2.3-.3-1.4-.4-2.4-.9-3.4-1.4-1.2-.5-2.1-1-3.1-1.1-.7,0-1.5,0-2.5,0-1.6.2-3.2.6-3.6.7h-.1s0,0,0,0c-4.7,1.3-7.4,5.7-9.7,9.7-1.7,3-4.1,6.8-5.6,9l-9,.4-6.7.8h0s0,0,0,0c-.1,0-.2,0-.3.1,0,0,0,0,0,0-.1,0-.2.1-.3.2h0c0,.2-.1.3-.2.4h0c0,.2,0,.3,0,.4h0c0,0,.1,1,.1,1,0,.6.5,1,1.1,1.1l14.7.9s0,0,0,0c-8.6,1.1-17.5,3.7-17.5,7.9,0,3.2,5,5.2,9.3,6.4,5.7,1.6,13.3,2.5,21.4,2.5,8.1,0,15.7-.8,21.5-2.3,4.2-1.1,9.3-3.1,9.3-6.3,0-4.5-9.8-6.7-14.9-7.6ZM46.1,43.6c-16.6,0-30.1-3.7-30.1-8.2,0-3.3,7.4-6.1,17.9-7.4-.2-.3-.4-.7-.6-1.1,0,0,0,0,0-.1l-15-.9c-.3,0-.5-.2-.5-.5v-.8c0,0,0,0,0,0,0,0,0,0,0,0,0,0,0,0,0,0,0,0,0-.1,0-.2,0,0,0,0,0,0,0,0,0-.1,0-.2,0,0,0,0,0,0,0,0,0,0,0,0,0,0,0,0,.1-.1,0,0,0,0,0,0,0,0,.1,0,.2,0,0,0,0,0,0,0l6.7-.8s0,0,0,0l9.3-.5c1.4-2.1,4-6.2,5.8-9.3,2.2-3.9,4.9-8.2,9.4-9.4h0s0,0,0,0h0s0,0,0,0c0,0,0,0,0,0h0c.2,0,1.9-.5,3.6-.7.9-.1,1.7-.1,2.4,0,.9.1,1.8.5,3,1,1,.4,2.1.9,3.5,1.4.8.3,1.5.3,2.5.3.4,0,.8,0,1.3,0,0,0,0,0,0,0,0,0,.1,0,.1,0,0,0,0,0,0,0,0,0,0,0,.1,0,0,0,0,0,0,0,0,0,0,0,0,.1,0,0,0,0,0,0,0,0,0,0,0,0,0,0,0,.1,0,.2h0s0,0,0,0c0,0,0,.1,0,.2,0,0,0,0,0,0,0,0,0,.1,0,.1,0,0,0,0,0,0,0,0,0,0,0,0l-.2.2c-.9,1-1.8,2.7-2.4,4-1,2.1-.9,4.7-.8,7.4,0,2.9.2,5.8-.8,8.9,0,0,0,0,0,0-.1.4-.3.7-.4,1.1.3,0,.6,0,.9.1,0,0,0,0,.1,0,.3,0,.5,0,.8.1,0,0,0,0,0,0,.3,0,.5.1.8.2t0,0c.3,0,.6.1.8.2,0,0,0,0,0,0t0,0c7.1,1.5,11.7,3.9,11.7,6.5,0,4.5-13.5,8.1-30.1,8Z"/>
    <path class="st0" d="M24.3,35.4c0,2.1,9.8,3.8,21.8,3.9,12.1,0,21.8-1.6,21.9-3.7,0-1.3-4-2.5-10.1-3.2-.2.2-.4.3-.7.5-.1,0-.2.2-.4.3-.1,0-.3.2-.4.2,0,0-.1.1-.2.2,0,0,0,0,0,0,3.6.5,5.9,1.2,5.9,2,0,1.4-7.2,2.6-16,2.5-8.8,0-15.9-1.2-15.9-2.6,0-1,3.2-1.8,8-2.2-.1-.1-.2-.2-.4-.3,0,0-.1-.1-.2-.2-.2-.2-.4-.5-.7-.7-7.5.6-12.7,1.9-12.7,3.4Z"/>
    <path class="st0" d="M69.2,35.5c0,2.7-10.3,4.9-23,4.9-12.7,0-23-2.3-23-5,0-2,5.3-3.6,13-4.4-.5-.6-1-1.2-1.5-1.9-10.2,1-17.4,3.5-17.4,6.3,0,3.8,12.9,7,28.9,7.1,16,0,28.9-3,28.9-6.8,0-2.6-5.8-4.9-14.5-6.1-.5.7-1,1.3-1.6,1.9,6.2.9,10.2,2.4,10.2,4.2Z"/>
    <path class="st0" d="M31.4,35.4c0,.8,6.6,1.4,14.8,1.4,8.2,0,14.8-.6,14.8-1.3s-2.5-.9-6.3-1.2c-1.9.9-3.5,1.4-3.7,1.4,0,0,0,0,0,0h0c-.7.2-1.4.4-2.2.6-.9.2-1.9.3-3.1.3-1.8,0-3.2-.5-4.1-.9,0,0-.2,0-.3,0,0,0-.1,0-.3-.2-.4-.3-.6-.4-.7-.5,0,0,0,0,0-.1-.2-.2-.5-.4-.8-.6-4.7.2-8,.7-8,1.2Z"/>
    <path class="st0" d="M41.7,34.4c.7.4,2,1,3.9,1,3.2,0,5-1,5.9-1.6.2-.1.3-.3.4-.3,1.1-1.2,2.5-3.1,2.7-5.8.1-1,0-2.4,0-3.9,0-3.1,0-7,1-9.7,1.1-2.7,4.8-5.3,7.2-6.8-1.5.2-3.2.4-4.1.5,0,0,0,0,0,0-1.2.1-2.7-.7-4.1-1.5-.9-.6-1.9-1.1-2.6-1.2-1-.2-1.7-.2-2.2-.1-.1,0-.2,0-.2,0,0,0,0,0,0,0-3.7,1-6,4.1-8.6,8.8-1.8,3.3-4.7,7.6-6,9.7h0s0,.1,0,.1c-.3.5-.5.8-.6.9h0c0,0,0,0,0,0,0,0,0,0,0,0,0,0,0,0,0,0,0,0,0,0,0,0,0,0,0,0,0,0,0,0,0,0,0,0,0,0,0,0,0,0,0,0,0,0,0,0,0,0,0,0,0,0,0,0,0,0,0,0h-10.5c0,.1,10.5.8,10.5.8.2,0,.4.1.5.3.1.2.2.4.3.6,0,0,0,.1.1.2,0,.1.2.3.2.4,0,0,0,.1.1.2.1.2.2.4.3.5h0c1.8,2.8,4.2,4.9,5.5,5.9,0,0,.2,0,.3.1,0,0,.2.2.6.4ZM52.8,7.3c.9-.1,1.7.5,1.9,1.5.1.9-.5,1.7-1.5,1.9-.9.1-1.8-.5-1.9-1.5-.1-.9.5-1.7,1.5-1.9Z"/>
    <path class="st0" d="M53.1,9.5c.3,0,.5-.3.4-.5,0-.3-.3-.5-.5-.4-.3,0-.5.3-.4.5,0,.3.3.5.5.4Z"/>
    <path class="st0" d="M53.7,4.4c.1,0,.2.1.3.2.2.1.4.2.6.3,0,0,.1,0,.2.1,0-.2.3-.4.5-.4.3,0,.6.3.6.6,0,.1,0,.3-.1.4.2.1.4.2.6.4.2.1.5.2.7.3,0,0,.2,0,.3,0,.2,0,.5.2.5.4,0,0,.2,0,.3,0,0,0,0,0,.2,0,0-.2.3-.4.6-.4.2,0,.4.1.5.3.1,0,.2,0,.4,0,0,0,.1,0,.2,0,0-.1.2-.2.3-.2-.2,0-.4-.2-.6-.3-.1,0-.2,0-.4-.1-.1,0-.3-.1-.4-.2,0,0,0,0,0,0-.1.1-.3.2-.4.2-.3,0-.6-.3-.6-.6h0c-.1,0-.3-.1-.4-.2,0,0,0,.1,0,.2,0,.3-.3.6-.6.6-.3,0-.6-.3-.6-.6s.1-.5.4-.5c-.1,0-.3-.1-.4-.2-.1,0-.3-.1-.4-.2-.2,0-.5,0-.7-.1,0,0,0,0,0,0,0,0-.1,0-.2,0s-.2,0-.3,0c-.3,0-.7,0-1.2,0,0,0,.2.1.3.2Z"/>
  </g>
</svg>